<svg width="16" height="19" viewBox="0 0 16 19" fill="none" xmlns="http://www.w3.org/2000/svg">
<g clip-path="url(#clip0_1_214)">
<path d="M0.330468 8.95552C-0.108985 9.39497 -0.108985 10.1086 0.330468 10.5481L5.95547 16.1731C6.39492 16.6125 7.10859 16.6125 7.54805 16.1731C7.9875 15.7336 7.9875 15.02 7.54805 14.5805L3.83906 10.875H14.625C15.2473 10.875 15.75 10.3723 15.75 9.75005C15.75 9.12778 15.2473 8.62505 14.625 8.62505H3.84258L7.54453 4.91958C7.98398 4.48013 7.98398 3.76645 7.54453 3.327C7.10508 2.88755 6.39141 2.88755 5.95195 3.327L0.326953 8.952L0.330468 8.95552Z" fill="white"/>
</g>
<defs>
<clipPath id="clip0_1_214">
<path d="M15.75 18.75H0V0.75H15.75V18.75Z" fill="white"/>
</clipPath>
</defs>
</svg>
