<svg width="45" height="61" viewBox="0 0 45 61" fill="none" xmlns="http://www.w3.org/2000/svg">
<g clip-path="url(#clip0_1_116)">
<path d="M7.5 0.75C3.36328 0.75 0 4.11328 0 8.25V53.25C0 57.3867 3.36328 60.75 7.5 60.75H37.5C41.6367 60.75 45 57.3867 45 53.25V19.5H30C27.9258 19.5 26.25 17.8242 26.25 15.75V0.75H7.5ZM30 0.75V15.75H45L30 0.75ZM13.125 30.75H31.875C32.9062 30.75 33.75 31.5938 33.75 32.625C33.75 33.6562 32.9062 34.5 31.875 34.5H13.125C12.0938 34.5 11.25 33.6562 11.25 32.625C11.25 31.5938 12.0938 30.75 13.125 30.75ZM13.125 38.25H31.875C32.9062 38.25 33.75 39.0938 33.75 40.125C33.75 41.1562 32.9062 42 31.875 42H13.125C12.0938 42 11.25 41.1562 11.25 40.125C11.25 39.0938 12.0938 38.25 13.125 38.25ZM13.125 45.75H31.875C32.9062 45.75 33.75 46.5938 33.75 47.625C33.75 48.6562 32.9062 49.5 31.875 49.5H13.125C12.0938 49.5 11.25 48.6562 11.25 47.625C11.25 46.5938 12.0938 45.75 13.125 45.75Z" fill="#9CA3AF"/>
</g>
<defs>
<clipPath id="clip0_1_116">
<path d="M0 0.75H45V60.75H0V0.75Z" fill="white"/>
</clipPath>
</defs>
</svg>
