<svg width="16" height="18" viewBox="0 0 16 18" fill="none" xmlns="http://www.w3.org/2000/svg">
<g clip-path="url(#clip0_1_168)">
<path d="M1.125 0C1.74727 0 2.25 0.502734 2.25 1.125V1.6875L4.67578 1.08281C6.01523 0.748828 7.42852 0.903516 8.66602 1.52227C10.2937 2.33789 12.2098 2.33789 13.8375 1.52227L14.175 1.35352C14.8992 0.987891 15.75 1.51523 15.75 2.32383V12.157C15.75 12.6246 15.4582 13.0465 15.0188 13.2117L13.7988 13.6687C12.1746 14.277 10.3676 14.182 8.81719 13.4086C7.48477 12.7406 5.95898 12.5754 4.51055 12.9375L2.25 13.5V16.875C2.25 17.4973 1.74727 18 1.125 18C0.502734 18 0 17.4973 0 16.875V14.0625V11.7422V2.25V1.125C0 0.502734 0.502734 0 1.125 0ZM2.25 6.57773L4.5 6.08906V8.3918L2.25 8.88047V11.1797L3.96563 10.7508C4.14492 10.7051 4.3207 10.6664 4.5 10.6348V8.3918L5.86758 8.09648C6.15937 8.0332 6.45469 8.00859 6.75 8.02266V5.77266C7.22813 5.78672 7.70625 5.86406 8.17031 5.99766L9 6.24023V8.58516L7.53398 8.15273C7.27734 8.07891 7.01367 8.0332 6.75 8.01914V10.5293C7.51641 10.5961 8.27227 10.7648 9 11.0355V8.58516L9.79805 8.8207C10.2727 8.96133 10.7578 9.0457 11.25 9.08086V6.82031C10.9758 6.79219 10.7016 6.73945 10.4344 6.66211L9 6.24023V4.06055C8.54297 3.92695 8.09297 3.75117 7.65703 3.5332C7.36875 3.38906 7.06289 3.28711 6.75 3.22383V5.76914C6.29297 5.75508 5.83594 5.79727 5.38945 5.8957L4.5 6.08906V3.44531L2.25 4.00781V6.57773ZM11.25 11.802C11.8406 11.8547 12.4418 11.7773 13.0078 11.5629L13.5 11.3801V8.85586L13.2223 8.91914C12.5754 9.07031 11.9109 9.11953 11.25 9.07734V11.7984V11.802ZM13.5 6.54961V4.05703C12.7652 4.27148 12.0094 4.37695 11.25 4.37695V6.82031C11.7387 6.86953 12.2344 6.83789 12.716 6.72891L13.5 6.54609V6.54961Z" fill="#227063"/>
</g>
<defs>
<clipPath id="clip0_1_168">
<path d="M0 0H15.75V18H0V0Z" fill="white"/>
</clipPath>
</defs>
</svg>
