<svg width="13" height="20" viewBox="0 0 13 20" fill="none" xmlns="http://www.w3.org/2000/svg">
<g clip-path="url(#clip0_1_37)">
<path d="M1.87891 9.375C1.875 9.48047 1.875 9.58203 1.875 9.6875V10.3125C1.875 10.418 1.875 10.5195 1.87891 10.625H1.25C0.558594 10.625 0 11.1836 0 11.875C0 12.5664 0.558594 13.125 1.25 13.125H2.35547C3.51172 16.4023 6.64062 18.75 10.3125 18.75H11.25C11.9414 18.75 12.5 18.1914 12.5 17.5C12.5 16.8086 11.9414 16.25 11.25 16.25H10.3125C8.05078 16.25 6.08594 14.9844 5.08203 13.125H10C10.6914 13.125 11.25 12.5664 11.25 11.875C11.25 11.1836 10.6914 10.625 10 10.625H4.38281C4.37891 10.5234 4.375 10.418 4.375 10.3125V9.6875C4.375 9.58203 4.37891 9.47656 4.38281 9.375H10C10.6914 9.375 11.25 8.81641 11.25 8.125C11.25 7.43359 10.6914 6.875 10 6.875H5.08203C6.08594 5.01562 8.05078 3.75 10.3125 3.75H11.25C11.9414 3.75 12.5 3.19141 12.5 2.5C12.5 1.80859 11.9414 1.25 11.25 1.25H10.3125C6.64062 1.25 3.51172 3.59766 2.35547 6.875H1.25C0.558594 6.875 0 7.43359 0 8.125C0 8.81641 0.558594 9.375 1.25 9.375H1.87891Z" fill="#2D8C6E"/>
</g>
<defs>
<clipPath id="clip0_1_37">
<path d="M0 0H12.5V20H0V0Z" fill="white"/>
</clipPath>
</defs>
</svg>
