<svg width="47" height="41" viewBox="0 0 47 41" fill="none" xmlns="http://www.w3.org/2000/svg">
<g clip-path="url(#clip0_1_199)">
<path d="M25.2917 2.875V3.69531C25.7694 3.78906 26.2323 3.90625 26.6503 4.02344C27.6059 4.28906 28.1733 5.32031 27.9194 6.32031C27.6656 7.32031 26.6802 7.91406 25.7246 7.64844C24.9109 7.42188 24.1495 7.26562 23.4701 7.25781C22.9252 7.25 22.3727 7.39062 22.0219 7.60156C21.8651 7.70312 21.7904 7.78906 21.7606 7.83594C21.7382 7.875 21.7083 7.92969 21.7083 8.05469C21.7083 8.07813 21.7083 8.09375 21.7083 8.10156C21.7233 8.11719 21.7755 8.19531 21.9547 8.30469C22.3877 8.57812 23.0297 8.78906 24.0002 9.09375L24.0674 9.11719C24.896 9.375 26.0009 9.72656 26.8967 10.3125C27.9194 10.9844 28.8451 12.1016 28.8675 13.8203C28.8899 15.5781 28.0165 16.8594 26.8743 17.6094C26.3741 17.9297 25.8366 18.1562 25.2842 18.2969V19.125C25.2842 20.1641 24.4854 21 23.4925 21C22.4996 21 21.7009 20.1641 21.7009 19.125V18.2344C20.9917 18.0547 20.3422 17.8203 19.7898 17.625C19.633 17.5703 19.4837 17.5156 19.3418 17.4688C18.4012 17.1406 17.8936 16.0781 18.2071 15.0938C18.5207 14.1094 19.5359 13.5781 20.4766 13.9062C20.6707 13.9766 20.8498 14.0391 21.0215 14.1016C22.0368 14.4609 22.7684 14.7188 23.5523 14.75C24.1495 14.7734 24.6795 14.625 24.9856 14.4297C25.1274 14.3359 25.1946 14.2578 25.2245 14.2031C25.2543 14.1562 25.2917 14.0625 25.2842 13.8828V13.8672C25.2842 13.7891 25.2842 13.7031 24.9856 13.5078C24.5601 13.2266 23.9181 13.0078 22.9625 12.7031L22.8207 12.6562C22.0144 12.4062 20.9543 12.0703 20.1033 11.5312C19.0955 10.8984 18.125 9.8125 18.1175 8.08594C18.1101 6.29688 19.0806 5.07031 20.1854 4.38281C20.6632 4.08594 21.1783 3.88281 21.6934 3.74219V2.875C21.6934 1.83594 22.4922 1 23.4851 1C24.4779 1 25.2767 1.83594 25.2767 2.875H25.2917ZM44.4177 27.2734C45.3957 28.6641 45.112 30.6172 43.7832 31.6406L34.3321 38.9297C32.5852 40.2734 30.48 41 28.3076 41H16.3333H4.38889C3.06753 41 2 39.8828 2 38.5V33.5C2 32.1172 3.06753 31 4.38889 31H7.13611L10.488 28.1875C12.1826 26.7656 14.2878 26 16.4602 26H22.3056H23.5H28.2778C29.5991 26 30.6667 27.1172 30.6667 28.5C30.6667 29.8828 29.5991 31 28.2778 31H23.5H22.3056C21.6486 31 21.1111 31.5625 21.1111 32.25C21.1111 32.9375 21.6486 33.5 22.3056 33.5H31.3087L40.2446 26.6094C41.5734 25.5859 43.4398 25.8828 44.4177 27.2734ZM16.4528 31H16.3856C16.408 31 16.4304 31 16.4528 31Z" fill="#333333"/>
</g>
<defs>
<clipPath id="clip0_1_199">
<path d="M2 0.5H45V40.5H2V0.5Z" fill="white"/>
</clipPath>
</defs>
</svg>
