<svg width="30" height="48" viewBox="0 0 30 48" fill="none" xmlns="http://www.w3.org/2000/svg">

<path d="M4.50937 22.5C4.5 22.7531 4.5 22.9969 4.5 23.25V24.75C4.5 25.0031 4.5 25.2469 4.50937 25.5H3C1.34062 25.5 0 26.8406 0 28.5C0 30.1594 1.34062 31.5 3 31.5H5.65312C8.42813 39.3656 15.9375 45 24.75 45H27C28.6594 45 30 43.6594 30 42C30 40.3406 28.6594 39 27 39H24.75C19.3219 39 14.6063 35.9625 12.1969 31.5H24C25.6594 31.5 27 30.1594 27 28.5C27 26.8406 25.6594 25.5 24 25.5H10.5187C10.5094 25.2563 10.5 25.0031 10.5 24.75V23.25C10.5 22.9969 10.5094 22.7437 10.5187 22.5H24C25.6594 22.5 27 21.1594 27 19.5C27 17.8406 25.6594 16.5 24 16.5H12.1969C14.6063 12.0375 19.3219 9 24.75 9H27C28.6594 9 30 7.65938 30 6C30 4.34062 28.6594 3 27 3H24.75C15.9375 3 8.42813 8.63437 5.65312 16.5H3C1.34062 16.5 0 17.8406 0 19.5C0 21.1594 1.34062 22.5 3 22.5H4.50937Z" fill="#333333"/>
</svg>
