<svg width="14" height="19" viewBox="0 0 14 19" fill="none" xmlns="http://www.w3.org/2000/svg">
<g clip-path="url(#clip0_1_164)">
<path d="M7.5832 17.8C9.38672 15.543 13.5 10.0727 13.5 7C13.5 3.27344 10.4766 0.25 6.75 0.25C3.02344 0.25 0 3.27344 0 7C0 10.0727 4.11328 15.543 5.9168 17.8C6.34922 18.3379 7.15078 18.3379 7.5832 17.8ZM6.75 4.75C7.34674 4.75 7.91903 4.98705 8.34099 5.40901C8.76295 5.83097 9 6.40326 9 7C9 7.59674 8.76295 8.16903 8.34099 8.59099C7.91903 9.01295 7.34674 9.25 6.75 9.25C6.15326 9.25 5.58097 9.01295 5.15901 8.59099C4.73705 8.16903 4.5 7.59674 4.5 7C4.5 6.40326 4.73705 5.83097 5.15901 5.40901C5.58097 4.98705 6.15326 4.75 6.75 4.75Z" fill="#227063"/>
</g>
<defs>
<clipPath id="clip0_1_164">
<path d="M0 0.25H13.5V18.25H0V0.25Z" fill="white"/>
</clipPath>
</defs>
</svg>
