<svg width="18" height="19" viewBox="0 0 18 19" fill="none" xmlns="http://www.w3.org/2000/svg">
<g clip-path="url(#clip0_1_144)">
<path d="M0.00703125 16.7348C0.0949219 17.5855 0.812109 18.25 1.6875 18.25H5.0625H16.3125C17.2441 18.25 18 17.4941 18 16.5625V13.1875C18 12.2559 17.2441 11.5 16.3125 11.5H14.625V14.3125C14.625 14.6219 14.3719 14.875 14.0625 14.875C13.7531 14.875 13.5 14.6219 13.5 14.3125V11.5H11.25V14.3125C11.25 14.6219 10.9969 14.875 10.6875 14.875C10.3781 14.875 10.125 14.6219 10.125 14.3125V11.5H7.875V14.3125C7.875 14.6219 7.62187 14.875 7.3125 14.875C7.00313 14.875 6.75 14.6219 6.75 14.3125V11.5H3.9375C3.62812 11.5 3.375 11.2469 3.375 10.9375C3.375 10.6281 3.62812 10.375 3.9375 10.375H6.75V8.125H3.9375C3.62812 8.125 3.375 7.87187 3.375 7.5625C3.375 7.25313 3.62812 7 3.9375 7H6.75V4.75H3.9375C3.62812 4.75 3.375 4.49687 3.375 4.1875C3.375 3.87812 3.62812 3.625 3.9375 3.625H6.75V1.9375C6.75 1.00586 5.99414 0.25 5.0625 0.25H1.6875C0.755859 0.25 0 1.00586 0 1.9375V13.1875V16.5625C0 16.6223 0.00351563 16.6785 0.00703125 16.7348Z" fill="#227063"/>
</g>
<defs>
<clipPath id="clip0_1_144">
<path d="M0 0.25H18V18.25H0V0.25Z" fill="white"/>
</clipPath>
</defs>
</svg>
