<svg width="70" height="58" viewBox="0 0 70 58" fill="none" xmlns="http://www.w3.org/2000/svg">
<g clip-path="url(#clip0_1_185)">
<path d="M35 5C41.3652 5 47.4697 7.52856 51.9706 12.0294C56.4714 16.5303 59 22.6348 59 29C59 35.3652 56.4714 41.4697 51.9706 45.9706C47.4697 50.4714 41.3652 53 35 53C28.6348 53 22.5303 50.4714 18.0294 45.9706C13.5286 41.4697 11 35.3652 11 29C11 22.6348 13.5286 16.5303 18.0294 12.0294C22.5303 7.52856 28.6348 5 35 5ZM32.75 16.25V29C32.75 29.75 33.125 30.4531 33.7531 30.875L42.7531 36.875C43.7844 37.5687 45.1813 37.2875 45.875 36.2469C46.5687 35.2062 46.2875 33.8188 45.2469 33.125L37.25 27.8V16.25C37.25 15.0031 36.2469 14 35 14C33.7531 14 32.75 15.0031 32.75 16.25Z" fill="#333333"/>
</g>
<defs>
<clipPath id="clip0_1_185">
<path d="M11 5H59V53H11V5Z" fill="white"/>
</clipPath>
</defs>
</svg>
